#!OML:ASF E:\Style4\Style4.ASF
:FULLY-SPECIFIED
:DEGREES
2961
root 0.367427 17.4603 0.153337 -3.05786 -19.879 5.05686
lowerback 5.2486 0.853881 -2.80694
upperback 3.52816 1.00625 -0.18284
thorax 0.642686 0.452859 1.33922
lowerneck 2.89761 -5.61424 -6.98344
upperneck 5.4894 -7.7604 3.58715
head 1.69071 -3.96931 2.27274
rclavicle 2.78299e-014 -1.23246e-014
rhumerus -3.87526 13.2469 -83.8617
rradius 130.729
rwrist 26.6611
rhand 21.4196 -4.06094
rfingers 7.12502
rthumb 45.8551 -27.2156
lclavicle 2.78299e-014 -1.23246e-014
lhumerus 4.75257 -17.2221 82.9098
lradius 130.343
lwrist -15.0828
lhand 19.8013 37.7565
lfingers 7.12502
lthumb 44.3499 61.5077
rfemur -16.7536 9.37237 12.333
rtibia 41.3692
rfoot -21.0485 -10.9077
rtoes -19.9826
lfemur -6.56101 10.5317 -24.7436
ltibia 34.2402
lfoot -28.068 17.2592
ltoes -11.2841
2962
root 0.35774 17.438 0.161825 -3.13979 -19.7301 5.17483
lowerback 5.13224 0.834842 -2.96089
upperback 3.39991 0.977366 -0.289588
thorax 0.576227 0.439566 1.31777
lowerneck 2.78076 -5.6149 -6.92962
upperneck 5.6249 -7.75886 3.65777
head 1.75619 -3.96724 2.28133
rclavicle -1.86858e-014 9.14409e-015
rhumerus -3.46441 13.2641 -83.8195
rradius 131.019
rwrist 26.5766
rhand 21.5914 -3.75845
rfingers 7.12502
rthumb 46.0146 -26.8469
lclavicle -1.86858e-014 9.14409e-015
lhumerus 5.25979 -16.9245 82.5198
lradius 130.588
lwrist -14.9903
lhand 19.4097 37.831
lfingers 7.12502
lthumb 43.9848 61.7196
rfemur -16.9201 9.29432 12.2374
rtibia 41.916
rfoot -21.3741 -10.7149
rtoes -18.7211
lfemur -6.72315 10.5696 -24.8106
ltibia 34.7221
lfoot -28.3092 16.9777
ltoes -10.8357
2963
root 0.347014 17.4132 0.16754 -3.17511 -19.5754 5.23427
lowerback 5.03476 0.83085 -3.05924
upperback 3.25101 0.969759 -0.368587
thorax 0.477409 0.438332 1.29225
lowerneck 2.67771 -5.63404 -6.92844
upperneck 5.78421 -7.78414 3.72286
head 1.83111 -3.97992 2.29713
rclavicle -1.09332e-015 3.97569e-015
rhumerus -3.08013 13.2213 -83.7348
rradius 131.22
rwrist 26.509
rhand 21.4629 -3.57386
rfingers 7.12502
rthumb 45.8954 -26.7118
lclavicle -1.09332e-015 3.97569e-015
lhumerus 5.68145 -16.6347 82.2372
lradius 130.893
lwrist -14.8893
lhand 19.1803 37.742
lfingers 7.12502
lthumb 43.7707 61.7099
rfemur -17.1591 9.28131 12.2087
rtibia 42.5363
rfoot -21.7723 -10.6812
rtoes -17.9179
lfemur -6.9926 10.6712 -24.8106
ltibia 35.3147
lfoot -28.4019 16.805
ltoes -10.8695
2964
root 0.337068 17.3826 0.170955 -3.26285 -19.4415 5.34453
lowerback 5.00764 0.847083 -3.21513
upperback 3.1151 0.983896 -0.446628
thorax 0.351099 0.447449 1.29804
lowerneck 2.63327 -5.64127 -6.96925
upperneck 5.89078 -7.79806 3.80856
head 1.8811 -3.98746 2.32995
rclavicle 3.26504e-014 1.27222e-014
rhumerus -2.71351 13.1635 -83.6176
rradius 131.349
rwrist 26.4369
rhand 21.2759 -3.35481
rfingers 7.12502
rthumb 45.7217 -26.5643
lclavicle 3.26504e-014 1.27222e-014
lhumerus 6.16865 -16.3561 81.9811
lradius 131.179
lwrist -14.6547
lhand 19.0258 37.6882
lfingers 7.12502
lthumb 43.6265 61.7089
rfemur -17.3898 9.2652 12.139
rtibia 43.2093
rfoot -22.134 -10.8291
rtoes -17.9856
lfemur -7.27702 10.8243 -24.8581
ltibia 35.9809
lfoot -28.4846 16.7215
ltoes -11.5872
2965
root 0.327861 17.3466 0.175374 -3.48104 -19.3323 5.45443
lowerback 5.07092 0.868231 -3.3544
upperback 3.06388 1.00243 -0.533887
thorax 0.261863 0.457517 1.2842
lowerneck 2.58956 -5.62107 -6.9116
upperneck 5.90389 -7.77064 3.85899
head 1.89114 -3.97173 2.33554
rclavicle -4.36332e-014 1.11319e-014
rhumerus -2.28424 13.1693 -83.5184
rradius 131.443
rwrist 26.3961
rhand 21.0993 -3.20066
rfingers 7.12502
rthumb 45.5578 -26.4771
lclavicle -4.36332e-014 1.11319e-014
lhumerus 6.69079 -16.144 81.7299
lradius 131.43
lwrist -14.5315
lhand 18.7854 37.5938
lfingers 7.12502
lthumb 43.402 61.6961
rfemur -17.4855 9.20971 12.0883
rtibia 43.8952
rfoot -22.4505 -10.9375
rtoes -17.857
lfemur -7.43268 10.9512 -24.8942
ltibia 36.709
lfoot -28.6767 16.7462
ltoes -12.3034
2966
root 0.320418 17.309 0.180574 -3.75202 -19.2235 5.49149
lowerback 5.16316 0.897273 -3.37918
upperback 3.07785 1.03587 -0.62585
thorax 0.224653 0.474944 1.20074
lowerneck 2.60328 -5.6192 -6.87253
upperneck 5.80918 -7.77356 3.99654
head 1.86293 -3.96985 2.37569
rclavicle -6.60959e-014 -1.39149e-014
rhumerus -1.86498 13.1757 -83.4199
rradius 131.555
rwrist 26.3046
rhand 20.9466 -3.25337
rfingers 7.12502
rthumb 45.4159 -26.5872
lclavicle -6.60959e-014 -1.39149e-014
lhumerus 7.22424 -15.9646 81.5337
lradius 131.644
lwrist -14.4413
lhand 18.6717 37.4322
lfingers 7.12502
lthumb 43.2957 61.5728
rfemur -17.492 9.16331 12.1178
rtibia 44.5813
rfoot -22.8573 -10.9979
rtoes -17.5005
lfemur -7.52071 11.03 -24.8533
ltibia 37.4535
lfoot -28.9641 16.7267
ltoes -12.6545
